<svg width="44" height="44" viewBox="0 0 44 44" fill="none" xmlns="http://www.w3.org/2000/svg">
<rect x="1" y="1" width="42" height="42" rx="3" fill="white"/>
<path fill-rule="evenodd" clip-rule="evenodd" d="M13 18C13 15.239 15.239 13 18 13H26C28.761 13 31 15.239 31 18V26C31 28.761 28.761 31 26 31H18C15.239 31 13 28.761 13 26V18ZM29 16C29 15.448 28.552 15 28 15C27.448 15 27 15.448 27 16C27 16.552 27.448 17 28 17C28.552 17 29 16.552 29 16ZM27 22C27 19.239 24.761 17 22 17C19.239 17 17 19.239 17 22C17 24.761 19.239 27 22 27C24.761 27 27 24.761 27 22ZM19.8787 19.8787C20.4413 19.3161 21.2044 19 22 19C22.7956 19 23.5587 19.3161 24.1213 19.8787C24.6839 20.4413 25 21.2044 25 22C25 22.7956 24.6839 23.5587 24.1213 24.1213C23.5587 24.6839 22.7956 25 22 25C21.2044 25 20.4413 24.6839 19.8787 24.1213C19.3161 23.5587 19 22.7956 19 22C19 21.2044 19.3161 20.4413 19.8787 19.8787Z" fill="#310A90"/>
<rect x="1" y="1" width="42" height="42" rx="3" stroke="#310A90" stroke-width="2"/>
</svg>
