<svg width="44" height="44" viewBox="0 0 44 44" fill="none" xmlns="http://www.w3.org/2000/svg">
<rect x="1" y="1" width="42" height="42" rx="3" fill="white"/>
<path fill-rule="evenodd" clip-rule="evenodd" d="M28.099 25.348C28.6 25.436 29.393 25.473 30.023 25.488C30.568 25.501 31 25.945 31 26.49V30C31 30.438 30.672 31 30 31C25.461 31 21.126 29.16 17.966 26.034C14.84 22.874 13 18.539 13 14C13 13.328 13.562 13 14 13H17.51C18.055 13 18.499 13.432 18.512 13.977C18.528 14.607 18.564 15.4 18.653 15.901C18.748 16.443 18.935 17.095 19.077 17.553C19.189 17.913 19.09 18.305 18.824 18.572L16.62 20.79C17.427 22.322 18.367 23.549 19.412 24.588C20.451 25.633 21.678 26.573 23.21 27.38L25.427 25.176C25.694 24.91 26.086 24.811 26.446 24.923C26.905 25.066 27.557 25.252 28.099 25.348Z" fill="#310A90"/>
<rect x="1" y="1" width="42" height="42" rx="3" stroke="#310A90" stroke-width="2"/>
</svg>
